<svg xmlns="http://www.w3.org/2000/svg" xmlns:xlink="http://www.w3.org/1999/xlink" aria-hidden="true" focusable="false" width="1em" height="1em" style="-ms-transform: rotate(360deg); -webkit-transform: rotate(360deg); transform: rotate(360deg);" preserveAspectRatio="xMidYMid meet" viewBox="0 0 32 32"><path d="M24 2h6v2h-6z" fill="#0e4721"/><path d="M24 8h4v2h-4z" fill="#0e4721"/><path d="M24 14h6v2h-6z" fill="#0e4721"/><path d="M24 20h4v2h-4z" fill="#0e4721"/><path d="M30 28h-6a10.035 10.035 0 0 1-6.927-17.262a11.963 11.963 0 0 0-4.08-.738a6.903 6.903 0 0 0-6.03 3.42C4.997 16.435 4 21.34 4 28H2c0-7.054 1.106-12.327 3.287-15.673A8.906 8.906 0 0 1 12.994 8H13a14.762 14.762 0 0 1 6.461 1.592a1 1 0 0 1 .087 1.722A8.025 8.025 0 0 0 24 26h6z" fill="#0e4721"/></svg>